# xmcd
#
# Track frame offsets: 
#        150
#        23031
#        37592
#        52991
#        70613
#        86225
#        103533
#        126505
#        148692
#        163356
#
# Disc length: 3480 seconds
#
# Revision: 0
# Processed by: cddbd v1.5.2PL0 Copyright (c) Steve Scherf et al.
# Submitted via: ExactAudioCopy v1.0b1
#
DISCID=830d960a
DTITLE=Leitmotiv - Psychobabele
DYEAR=2011
DGENRE=Rock
TTITLE0=La mia storia è chiara
TTITLE1=Psychobabele
TTITLE2=Perso
TTITLE3=Napoli minor
TTITLE4=Corrente
TTITLE5=Galileo
TTITLE6=Paludosa
TTITLE7=Roma Beirut
TTITLE8=Eredità
TTITLE9=Limacuore
EXTD=
EXTT0=
EXTT1=
EXTT2=
EXTT3=
EXTT4=
EXTT5=
EXTT6=
EXTT7=
EXTT8=
EXTT9=
PLAYORDER=
